<?xml version="1.0" standalone="no"?><!DOCTYPE svg PUBLIC "-//W3C//DTD SVG 1.1//EN" "http://www.w3.org/Graphics/SVG/1.1/DTD/svg11.dtd"><svg t="1614651655251" class="icon" viewBox="0 0 1086 1024" version="1.1" xmlns="http://www.w3.org/2000/svg" p-id="13879" width="67.875" height="64" xmlns:xlink="http://www.w3.org/1999/xlink"><defs><style type="text/css"></style></defs><path d="M17.25019 390.854155a511.116726 511.116726 0 1 1 371.837418 615.895655A507.922247 507.922247 0 0 1 17.25019 390.854155" fill="#F7F8F8" p-id="13880"></path><path d="M981.983011 321.214501H587.784235v76.028613h419.115716A527.72802 527.72802 0 0 0 981.983011 321.214501m-100.945554-157.807289H587.784235v77.945301h353.948333a511.116726 511.116726 0 0 0-60.695111-77.945301m-737.285878 702.785499h735.36919a568.617358 568.617358 0 0 0 63.889591-77.945301H82.417572c18.527981 28.11142 39.930994 54.306152 63.889591 77.945301M633.145845 19.016737C618.451239 15.183361 603.117737 11.988882 587.784235 9.433298v76.028613h199.97442a486.199786 486.199786 0 0 0-154.61281-63.889591m383.337545 456.171679H587.784235v77.9453h430.615842a454.254991 454.254991 0 0 0 0-77.9453M41.528234 709.024317h939.176985a457.44947 457.44947 0 0 0 24.278044-74.111925v-3.833375H15.972398c6.19729 26.705849 14.694606 52.772802 25.555836 77.9453m347.559374 297.725493c29.389212 8.561205 59.608988 14.311268 90.084323 17.25019h63.889591a499.6166 499.6166 0 0 0 239.585965-77.945301H238.308174a504.088871 504.088871 0 0 0 150.779434 63.889591" fill="#E72D14" p-id="13881"></path><path d="M548.811585 524.3834l-10.86123-7.666751-10.861231 7.666751 3.833376-12.777918-10.861231-7.666751h13.416814l4.472272-13.416814 4.472271 13.416814h13.416814l-10.86123 7.666751 3.833375 12.777918z m-53.667256-410.171173l3.833375 15.333502-10.86123-8.305647-10.861231 8.305647 3.833376-13.416814-10.861231-7.666751h13.416814l4.472272-13.416814 4.472271 13.416814h13.416814l-10.86123 5.750063z m0 117.556847l3.833375 12.777918-10.86123-8.305647-10.861231 8.305647 3.833376-12.777918-10.861231-8.305647h13.416814l4.472272-12.777918 4.472271 12.777918h13.416814l-10.86123 8.305647z m0 114.362368l4.472271 13.416814-11.500126-8.305647-10.861231 8.305647 4.472272-13.416814-11.500127-7.666751h14.05571l3.833376-12.777918 4.472271 12.777918h12.139022l-9.583438 7.666751z m0 127.779181l-10.861231-7.666751-10.86123 7.666751 3.833375-12.777918L468.310701 448.993683h13.416814l4.472271-12.777918 3.833375 12.777918h14.05571l-11.500126 8.305647 2.555584 16.611293z m-52.389465-302.83666l4.472272 12.777918-10.861231-7.666751-11.500126 7.666751 4.472271-12.777918-10.86123-7.666751h13.416814l4.472271-13.416814 3.833376 13.416814h14.05571l-11.500127 7.666751z m0 113.723471l4.472272 12.777919-10.861231-7.666751-11.500126 7.666751 4.472271-12.777919-10.86123-8.305646h13.416814l4.472271-12.777919 3.833376 12.777919h14.05571l-11.500127 8.305646z m0 116.279056l4.472272 12.777918-10.861231-8.305647-11.500126 8.305647 4.472271-12.777918-10.86123-8.305647h13.416814l4.472271-12.777918 3.833376 12.777918h14.05571l-11.500127 8.305647zM447.227136 524.3834l-10.861231-7.666751-11.500126 7.666751 4.472271-12.777918-10.86123-7.666751h13.416814l4.472271-13.416814 3.833376 13.416814h14.05571L442.754864 512.883274l4.472272 11.500126z m-54.306153-410.171173l4.472272 15.333502-10.861231-8.305647-11.500126 8.305647 4.472271-13.416814-10.86123-7.666751H383.337545l4.472271-13.416814 3.833376 13.416814h14.05571l-12.777919 5.750063z m0 117.556847l4.472272 12.777918-10.861231-8.305647-11.500126 8.305647 4.472271-12.777918-10.86123-8.305647H383.337545l4.472271-12.777918 3.833376 12.777918h14.05571l-12.777919 8.305647z m0 114.362368l3.833376 13.416814L383.337545 351.242609l-10.861231 8.305647 3.833376-13.416814-10.861231-7.666751H383.337545v-12.777918l4.472271 12.777918h13.416814l-8.305647 7.666751z m0 127.779181L383.337545 464.96608l-11.500127 7.666751 4.472272-12.777918L366.726251 448.993683H383.337545v-10.222335l3.833375 12.777918h13.416814l-10.86123 8.305647 3.194479 14.05571zM338.614831 58.628283l4.472272 13.416814-8.944543-6.388959-10.861231 8.305647 4.472272-13.416814L319.447954 49.68374h13.416814l3.833376-12.777918 4.472271 12.777918h13.416814L338.614831 58.628283z m0 113.723472l4.472272 12.777918-11.500127-7.666751-10.86123 7.666751 4.472271-12.777918L319.447954 163.407212h13.416814l3.833376-13.416814 4.472271 13.416814h13.416814l-15.972398 8.944543z m0 113.723471l4.472272 12.777918-11.500127-7.66675-10.86123 7.66675 4.472271-12.777918L319.447954 276.491788h13.416814l3.833376-12.777919 4.472271 12.777919h13.416814l-15.972398 9.583438z m0 116.279056l4.472272 12.777918-11.500127-8.305647-10.86123 8.305647 4.472271-12.777918L319.447954 392.770843h13.416814l3.833376-12.777918 4.472271 12.777918h13.416814l-15.972398 9.583439z m4.472272 123.30691l-11.500127-7.666751-10.86123 7.666751 4.472271-12.777918L319.447954 503.938731h13.416814l3.833376-13.416814 4.472271 13.416814h13.416814L341.170415 512.883274l1.916688 12.777918z m-51.750569-415.28234l4.472271 12.777918-11.500126-7.666751-10.86123 7.666751 4.472271-12.777918-11.500126-8.305647h14.05571l3.833375-12.777918 4.472271 12.777918h13.416814l-10.86123 8.305647z m0 116.917951l4.472271 12.777918-11.500126-7.666751-10.86123 7.666751 4.472271-12.777918-11.500126-7.666751h14.05571l3.833375-12.777918 4.472271 12.777918h13.416814l-10.86123 7.666751z m0 115.001263l4.472271 12.777918-10.86123-7.666751-11.500126 7.666751 4.472271-12.777918-12.139022-8.305647h13.416814l4.472271-12.777918 3.833376 12.777918h14.05571l-10.222335 8.305647z m0 127.779182l-10.86123-8.305647-10.861231 8.305647 4.472272-12.777918L264.502906 448.993683h14.05571l3.833375-12.777918 4.472272 12.777918h13.416814l-10.861231 8.305647 1.916688 12.777918z m-51.750568-299.003285l3.833375 12.777918-10.86123-7.666751-10.861231 7.666751 4.472271-12.777918-11.500126-7.666751h14.05571l3.833376-13.416814 4.472271 13.416814h13.416814l-10.86123 7.666751z m0 113.723471l3.833375 12.777919-10.86123-7.666751-10.861231 7.666751 4.472271-12.777919-11.500126-8.305646h14.05571l3.833376-12.777919 4.472271 12.777919h13.416814l-10.86123 8.305646z m0 116.279056l3.833375 12.777918-10.86123-8.305647-10.861231 8.305647 4.472271-12.777918-11.500126-8.305647h14.05571l3.833376-12.777918 4.472271 12.777918h13.416814l-10.86123 8.305647z m3.833375 123.30691l-10.86123-7.666751-10.861231 7.666751 4.472271-12.777918-11.500126-7.666751h14.05571l3.833376-13.416814 4.472271 13.416814h13.416814L239.585966 512.883274l3.833375 11.500126zM191.668772 226.657907l3.833376 12.777918-10.861231-8.305647-10.86123 8.305647 3.833375-12.777918-10.86123-8.305647h12.139022l3.833376-12.777918 4.472271 12.777918h13.416814L191.668772 226.657907z m0 114.362367l4.472272 12.777918-10.861231-7.66675-11.500126 7.66675 4.472271-12.777918-10.86123-7.666751h13.416814L182.085334 321.214501l3.833375 13.416814h13.416814l-7.666751 6.388959z m0 127.779182l-10.86123-7.666751-10.86123 7.666751 3.833375-12.777918L162.918457 448.993683h13.416814l4.472271-12.777918 4.472271 12.777918h13.416814l-10.86123 8.305647 3.833375 11.500126zM431.893634 49.68374l4.472271-12.777918 3.833376 12.777918h14.05571l-11.500127 7.666751 4.472272 13.416814L436.365905 65.656138l-11.500126 8.305647 4.472271-13.416814L418.47682 52.87822l13.416814-3.19448z m101.584449 343.087103l4.472272-12.777918 4.472271 12.777918h13.416814l-10.86123 8.305647 3.833375 12.777918-10.86123-8.305647-10.861231 8.305647 3.833376-12.777918-10.861231-8.305647h13.416814z m0-116.279055l4.472272-12.777919 4.472271 12.777919h13.416814l-10.86123 8.305646 3.833375 12.777919-10.86123-7.666751-10.861231 7.666751 3.833376-12.777919-10.861231-8.305646h13.416814z m0-113.084576l4.472272-13.416814 4.472271 13.416814h13.416814l-10.86123 7.666751 3.833375 12.777918-10.86123-7.666751-10.861231 7.666751 3.833376-12.777918-10.861231-7.666751h13.416814z m0-113.723472l4.472272-12.777918 4.472271 12.777918h13.416814l-10.86123 7.666751 3.833375 13.416814L537.950355 65.656138l-10.861231 8.305647 3.833376-13.416814L520.061269 52.87822l13.416814-3.19448zM138.001516 284.797434l3.833376 12.777919-10.861231-7.666751-10.86123 7.666751 3.833375-12.777919-10.86123-8.305646H127.779182l4.472271-12.777919 3.833375 12.777919h14.05571l-12.139022 8.305646z m0 116.279056l3.833376 12.777918-10.861231-8.305647-10.86123 8.305647 3.833375-12.777918-10.86123-8.305647H127.779182l4.472271-12.777918 3.833375 12.777918h14.05571l-12.139022 8.305647z m3.833376 123.30691l-10.861231-7.666751-10.86123 7.666751 3.833375-12.777918-10.86123-7.666751H127.779182l4.472271-13.416814 3.833375 13.416814h14.05571L138.001516 512.883274l3.833376 11.500126z m-54.945049-185.279813l3.833376 12.777918-10.86123-7.666751-10.861231 7.666751 3.833376-12.777918L63.889591 331.436836h14.05571L79.861989 321.214501l4.472271 13.416814h13.416814l-10.861231 4.472272z m3.19448 127.779181l-10.86123-8.305647-11.500127 8.305647 4.472272-12.777918L63.889591 444.521411h13.416814l4.472271-12.777918 3.833376 12.777918h13.416814l-10.861231 8.305647 1.916688 14.05571z m-49.833881 58.778424l-10.86123-7.666751-11.500127 7.666751 4.472272-12.777918-10.861231-7.666751h13.416814l4.472272-13.416814 3.833375 13.416814h13.416814L35.778171 512.883274l4.472271 12.777918zM587.784235 9.433298L540.505938 1.766547 447.227136 7.51661a511.116726 511.116726 0 0 0-255.558364 108.612305v5.750063-3.19448a397.393255 397.393255 0 0 0-47.917193 44.722714h7.666751l-10.86123 7.666751 3.833375 12.777918-10.86123-7.666751-5.750063 3.19448c-10.222335 11.500126-19.805773 24.278045-29.389212 37.055962l-7.027855 9.583439v8.944543l-6.388959-3.833376a500.894392 500.894392 0 0 0-67.722966 159.723977H25.555836l4.472272-12.777918 3.833375 12.777918h13.416814l-10.86123 8.305647 4.472271 12.777918-10.86123-8.305647-11.500127 8.305647 4.472272-12.777918-6.388959-5.111167a491.310953 491.310953 0 0 0-12.139023 157.807289H587.784235V9.433298z" fill="#073470" p-id="13882"></path></svg>